# xmcd
#
# Track frame offsets:
#	150
#	11662
#	29355
#	50463
#	65014
#	81676
#	95212
#	112804
#	122374
#	141293
#
# Disc length: 2035 seconds
# Revision: 0
# Processed by: cddbd v1.5.2PL0 Copyright (c) Steve Scherf et al.
# Submitted via: dBpowerAMP V12.0
#
DISCID=8a07f10a
DTITLE=Audie Blaylock and Redline - The Road That Winds
DYEAR=2016
DGENRE=Country
TTITLE0=Daniel
TTITLE1=All Three In Tow
TTITLE2=Safe Water
TTITLE3=Life Without A Spare
TTITLE4=Where The Wild River Rolls
TTITLE5=Ride And Roll
TTITLE6=The Tie That Binds
TTITLE7=The Road That Winds
TTITLE8=I'm Still Alive
TTITLE9=Cousin Sally Brown
EXTD=
EXTT0=
EXTT1=
EXTT2=
EXTT3=
EXTT4=
EXTT5=
EXTT6=
EXTT7=
EXTT8=
EXTT9=
PLAYORDER=
